<?xml version="1.0" standalone="no"?>
<!DOCTYPE svg PUBLIC "-//W3C//DTD SVG 20010904//EN"
 "http://www.w3.org/TR/2001/REC-SVG-20010904/DTD/svg10.dtd">
<svg version="1.0" xmlns="http://www.w3.org/2000/svg"
 width="285.000000pt" height="285.000000pt" viewBox="0 0 285.000000 285.000000"
 preserveAspectRatio="xMidYMid meet">
<metadata>
Created by potrace 1.11, written by Peter Selinger 2001-2013
</metadata>
<g transform="translate(0.000000,285.000000) scale(0.100000,-0.100000)"
fill="#000000" stroke="none">
<path d="M450 2705 l0 -75 -150 0 -150 0 0 -75 0 -75 -75 0 -75 0 0 -600 0
-600 75 0 75 0 0 -300 0 -300 75 0 75 0 0 -75 0 -75 75 0 75 0 0 -75 0 -75 75
0 75 0 0 -75 0 -75 150 0 150 0 0 -75 0 -75 375 0 375 0 0 75 0 75 -375 0
-375 0 0 75 0 75 -75 0 -75 0 0 75 0 75 -75 0 -75 0 0 300 0 300 -75 0 -75 0
0 75 0 75 150 0 150 0 0 75 0 75 75 0 75 0 0 75 0 75 75 0 75 0 0 -225 0 -225
75 0 75 0 0 -75 0 -75 150 0 150 0 0 75 0 75 225 0 225 0 0 -75 0 -75 225 0
225 0 0 300 0 300 75 0 75 0 0 -150 0 -150 75 0 75 0 0 -300 0 -300 -75 0 -75
0 0 -75 0 -75 -75 0 -75 0 0 -75 0 -75 -150 0 -150 0 0 -75 0 -75 -150 0 -150
0 0 -75 0 -75 225 0 225 0 0 75 0 75 75 0 75 0 0 75 0 75 75 0 75 0 0 75 0 75
75 0 75 0 0 75 0 75 75 0 75 0 0 375 0 375 -75 0 -75 0 0 150 0 150 -75 0 -75
0 0 75 0 75 -75 0 -75 0 0 75 0 75 -75 0 -75 0 0 75 0 75 75 0 75 0 0 75 0 75
75 0 75 0 0 150 0 150 -75 0 -75 0 0 75 0 75 -150 0 -150 0 0 -75 0 -75 -150
0 -150 0 0 -75 0 -75 -75 0 -75 0 0 75 0 75 -150 0 -150 0 0 75 0 75 -450 0
-450 0 0 -75z m900 -150 l0 -75 75 0 75 0 0 -75 0 -75 150 0 150 0 0 75 0 75
150 0 150 0 0 75 0 75 150 0 150 0 0 -150 0 -150 -75 0 -75 0 0 -75 0 -75
-150 0 -150 0 0 -75 0 -75 -225 0 -225 0 0 -75 0 -75 300 0 300 0 0 -75 0 -75
150 0 150 0 0 -75 0 -75 -300 0 -300 0 0 -150 0 -150 -75 0 -75 0 0 150 0 150
-225 0 -225 0 0 75 0 75 150 0 150 0 0 75 0 75 -225 0 -225 0 0 -75 0 -75 -75
0 -75 0 0 -75 0 -75 -150 0 -150 0 0 -75 0 -75 -75 0 -75 0 0 -75 0 -75 -75 0
-75 0 0 75 0 75 -75 0 -75 0 0 450 0 450 75 0 75 0 0 75 0 75 150 0 150 0 0
75 0 75 375 0 375 0 0 -75z m0 -1200 l0 -75 75 0 75 0 0 -75 0 -75 -150 0
-150 0 0 150 0 150 75 0 75 0 0 -75z m750 0 l0 -75 75 0 75 0 0 -75 0 -75
-150 0 -150 0 0 150 0 150 75 0 75 0 0 -75z m-1650 -300 l0 -75 -75 0 -75 0 0
75 0 75 75 0 75 0 0 -75z"/>
<path d="M1200 2255 l0 -75 -150 0 -150 0 0 -75 0 -75 -75 0 -75 0 0 -75 0
-75 -75 0 -75 0 0 -75 0 -75 75 0 75 0 0 75 0 75 75 0 75 0 0 75 0 75 150 0
150 0 0 75 0 75 150 0 150 0 0 75 0 75 -150 0 -150 0 0 -75z"/>
<path d="M1050 755 l0 -75 75 0 75 0 0 -75 0 -75 75 0 75 0 0 -75 0 -75 300 0
300 0 0 75 0 75 -225 0 -225 0 0 75 0 75 375 0 375 0 0 75 0 75 -600 0 -600 0
0 -75z"/>
</g>
</svg>
